<svg id="Layer_3" enable-background="new 0 0 64 64" height="512" viewBox="0 0 64 64" width="512" xmlns="http://www.w3.org/2000/svg"><g><path d="m44 8.999h-3.001v51.999h3.001c1.654 0 3-1.346 3-3v-45.999c0-1.654-1.346-3-3-3z"/><path d="m5 13.999h3c1.654 0 2.999 1.346 2.999 3 0 1.653-1.345 2.999-2.999 2.999h-3.001v4.001h3.001c1.654 0 2.999 1.346 2.999 3 0 1.653-1.345 2.999-2.999 2.999h-3.001v4.001h3.001c1.654 0 2.999 1.346 2.999 3 0 1.653-1.345 2.999-2.999 2.999h-3.001v4.001h3.001c1.654 0 2.999 1.346 2.999 3 0 1.653-1.345 2.999-2.999 2.999h-3v11h28v-51.999h-28zm9 0c0-.553.447-1 1-1h12c.553 0 1 .447 1 1v5.999c0 .553-.447 1-1 1h-12c-.553 0-1-.447-1-1z"/><path d="m35 8.999h4v51.999h-4z"/><path d="m16 14.999h10v3.999h-10z"/><path d="m8.999 47c0-.553-.448-1.001-.999-1.001h-4c-.552 0-1 .448-1 1 0 .551.448.999 1 .999h4c.551 0 .999-.447.999-.998z"/><path d="m4 17.998h4c.551 0 .999-.447.999-.998 0-.553-.448-1.001-.999-1.001h-4c-.552 0-1 .448-1 1 0 .551.448.999 1 .999z"/><path d="m14.999 3.616-2.553 1.276c-.281.142-.613.141-.894 0l-2.552-1.276v3.383h6v-3.383z"/><path d="m4 37.998h4c.551 0 .999-.447.999-.998 0-.553-.448-1.001-.999-1.001h-4c-.552 0-1 .448-1 1 0 .551.448.999 1 .999z"/><path d="m4 27.998h4c.551 0 .999-.447.999-.998 0-.553-.448-1.001-.999-1.001h-4c-.552 0-1 .448-1 1 0 .551.448.999 1 .999z"/><path d="m58 2.999c-1.655 0-3 1.346-3 3v1h6v-1c-.001-1.654-1.346-3-3-3z"/><path d="m58.999 8.998h2v42h-2z"/><path d="m56.277 54.999h3.445l.8-2.001h-5.046z"/><path d="m55 8.998h2v42h-2z"/><path d="m58 59.306.922-2.308h-1.846z"/></g></svg>