<svg id="Component_9_1" data-name="Component 9 – 1" xmlns="http://www.w3.org/2000/svg" width="258" height="40" viewBox="0 0 258 40">
  <circle id="Ellipse_6" data-name="Ellipse 6" cx="4" cy="4" r="4" transform="translate(0 10)" fill="#fff"/>
  <circle id="Ellipse_7" data-name="Ellipse 7" cx="6" cy="6" r="6" transform="translate(19 2)" fill="#fff"/>
  <circle id="Ellipse_8" data-name="Ellipse 8" cx="7.5" cy="7.5" r="7.5" transform="translate(10 25)" fill="#fff"/>
  <circle id="Ellipse_9" data-name="Ellipse 9" cx="4" cy="4" r="4" transform="translate(46 6)" fill="#fff"/>
  <circle id="Ellipse_10" data-name="Ellipse 10" cx="4" cy="4" r="4" transform="translate(40 28)" fill="#fff"/>
  <circle id="Ellipse_11" data-name="Ellipse 11" cx="7.5" cy="7.5" r="7.5" transform="translate(100 21)" fill="#fff"/>
  <circle id="Ellipse_12" data-name="Ellipse 12" cx="4" cy="4" r="4" transform="translate(92 9)" fill="#fff"/>
  <circle id="Ellipse_13" data-name="Ellipse 13" cx="6" cy="6" r="6" transform="translate(115)" fill="#fff"/>
  <circle id="Ellipse_14" data-name="Ellipse 14" cx="4" cy="4" r="4" transform="translate(138 6)" fill="#fff"/>
  <circle id="Ellipse_15" data-name="Ellipse 15" cx="4" cy="4" r="4" transform="translate(130 28)" fill="#fff"/>
  <circle id="Ellipse_16" data-name="Ellipse 16" cx="4" cy="4" r="4" transform="translate(184 9)" fill="#fff"/>
  <circle id="Ellipse_17" data-name="Ellipse 17" cx="7.5" cy="7.5" r="7.5" transform="translate(190 21)" fill="#fff"/>
  <circle id="Ellipse_18" data-name="Ellipse 18" cx="4" cy="4" r="4" transform="translate(220 29)" fill="#fff"/>
  <circle id="Ellipse_19" data-name="Ellipse 19" cx="4" cy="4" r="4" transform="translate(230 10)" fill="#fff"/>
  <circle id="Ellipse_20" data-name="Ellipse 20" cx="6" cy="6" r="6" transform="translate(207 2)" fill="#fff"/>
  <circle id="Ellipse_21" data-name="Ellipse 21" cx="6.5" cy="6.5" r="6.5" transform="translate(67 14)" fill="#fff"/>
  <circle id="Ellipse_22" data-name="Ellipse 22" cx="6.5" cy="6.5" r="6.5" transform="translate(159 17)" fill="#fff"/>
  <circle id="Ellipse_23" data-name="Ellipse 23" cx="6.5" cy="6.5" r="6.5" transform="translate(245 20)" fill="#fff"/>
</svg>
