<svg xmlns="http://www.w3.org/2000/svg" version="1.1" xmlns:xlink="http://www.w3.org/1999/xlink" xmlns:svgjs="http://svgjs.dev/svgjs" width="1500" height="1500" viewBox="0 0 1500 1500"><rect width="1500" height="1500" fill="#000000"></rect><g transform="matrix(0.6666666666666666,0,0,0.6666666666666666,250.00007343750008,187.66666666666674)"><svg viewBox="0 0 320 360" data-background-color="#528265" preserveAspectRatio="xMidYMid meet" height="1687" width="1500" xmlns="http://www.w3.org/2000/svg" xmlns:xlink="http://www.w3.org/1999/xlink"><g id="tight-bounds" transform="matrix(1,0,0,1,0.000023499999997511622,0)"><svg viewBox="0 0 320 360" height="360" width="320"><g><svg></svg></g><g><svg viewBox="0 0 320 360" height="360" width="320"><g><path transform="translate(-74.99272,-51.79039) scale(4.65793,4.65793)" d="M20.6 59.9l0.8 1-0.4-1.3c-0.1-0.6-0.8 0.1-0.4 0.3M21.5 59.3c0.3 0.5 0.6 1 0.6 1.5 0 0.7 0.6 1 1.1 1.2-0.7-0.8-1.1-3-1.7-2.7M59.9 16.9c1.7 0 3.3-0.2 5.1 0.2 4.4 1.1 8.1 3.3 10.6 6.4l7 11.2c0.3 2.8 0.9 5.9 0.8 9.3 0.7 0 0.6-1 1.4-1.2-0.8 2-1.2 4.5-1.4 7.4-0.5-1.6 0-4 0.1-5.3-0.7 1.1-1.1 0.3-1.1-0.2 0.1-0.8-0.3-0.7-0.6-1-1.1-1-1.8-2.1-2.6-3.8 0.5-1.3 0.6-3.2-1-4.2-0.5-0.3-1.1-0.8-1.4-1.6-0.4-1.1-1.1-2.4-0.9-4.1 0.1-0.5-1.5 1.1-2.4 0.4-3.9-2.7-7.8-5.8-12.5-8.4-2.5 0-4.3-0.9-5.2-2-0.8-1-0.2-2.3 1-2.4 0.7 0 1.5-0.2 2.1 0.2 0.1-0.4 0.5-0.9 1-0.9M50 14.6l0.2 0.1c1 0.2 1.5 1.6 2.6 1.1 0 0.7 0.1 1.4-0.1 1.9-0.3 0.8-1.2 0.8-1.9 0.8-6.7-0.4-10.6 2.4-14.7 4.8-1.1 0.7-2.3 1.2-3.2 2.1-4.3 4-9 7.7-10.1 15.1l-0.9 8.2c-0.1 0.9-1.1 1.8-0.9 2.9l0.7 4.9c-0.7-0.7-1.1 0.2-0.9 0.6 0.1 0.3 0.5 1.3 1.1 0.4 0.8 1.5 1.6 4.4 2.7 5.7 3.4 4 7.8 7.6 11.4 11.2 0.9-0.2 1.6-0.2 1.8-0.8 0.3 0.6-0.3 1.2-0.8 1.3 1.6 1 3.4 1.9 5.8 2.1 3.1 0.2 6 0.7 8.7 1.4 1.4-0.4 2.8-0.6 4.3-0.7 0.5 0 0.8-0.8 1.4-1l0.1-1c0.6 0.9 0.5-0.3 0.1-0.9 0.7 0.6 0.9 1.1 1.2 1.5 0-0.3 0.8-1.4 0.8-0.1l0.2-1.3c0.3-0.2 0.4 1.1 0.7 0.2 0.3-0.9 0.9-0.2 1.5-0.5-0.2 0.4-0.1 1.2 0.6 0.7l0.8-0.7c0.5 1.2 1.3 0.7 1.7 0.5 4.4-2.8 8.8-6.1 13-9.4l-0.1 1.3 0.5-1.6c0.5 0.5 0.9 0.1 1.1-0.2 0.6-1 1.4-2 2.7-2.9-1.6 4.3-3.5 7.7-5.9 10.5l-1 1.2c0 0.7-0.2 1.6-1 1.7-0.4 0.1-1.2-0.2-1.8 0.4-0.3 0.4 0.7 1.2-0.1 0.6-0.7-0.5-1.4 0-2.2 0.2-0.6 0.2 0.4 0.8 0.6 1.2 0.2 0.4 0.4 0.8 0.3 1.3l-1.1-1.2c-1.3 0.7-2.1 2-3.2 3-0.5 0.4-0.3 1.1-0.3 1.7-0.7 0-1.5-0.2-1.9 0.2-0.3 0.4-0.2 1-0.2 1.6-1-0.1-1.1-1.6-2-1.3-0.9 0.2-1.9 0.3-2.7 0.8 0.6 1.2-1 0.5-0.8 0.7-1.5-0.9-2.8-1.6-4.4-1-3.4-1.1-7.6-0.6-10.7-0.2 0-0.5 0.1-1-0.1-1.1-0.2 0.5-0.8 0.3-0.7 0.3-1.9-1.3-3.8-2.1-5.8-3.2-1.8 0.2-3.5-0.7-4-1.2-1.4-1.3-3-0.6-4.3-0.9-2.8-0.7-3.8-3.6-4.1-5.6-0.2-1-1-1.4-1.3-1.3-1.3-4.2-3.3-8-4.9-11.9-0.4-1-0.3-2-0.3-3.1 0.5 0.2 1 0.1 0.9-0.6-0.5-3.3-1.7-5.8-3-8.2 0.7-3.4 0.8-7.4 2.4-10.4 1.4-2.7 4-4.1 5.8-6.4 0.6-0.8 0.6-1.9 1.2-2.6 2-2 4-4.1 6.2-5.9 1-0.8 2.2 0 3.7-0.3 0.5-1.8 2.5-3.4 4.4-2.9 0.8 0.2 2.4-1.9 2.9-2.1 0.8-0.3 0.4 0.8 0.4 1.5 1.9-1.5 4.5-2.3 6.9-3.2" fill="#ffffff" fill-rule="nonzero" stroke="none" stroke-width="1" stroke-linecap="butt" stroke-linejoin="miter" stroke-miterlimit="10" stroke-dasharray="" stroke-dashoffset="0" font-family="none" font-weight="none" font-size="none" text-anchor="none" style="mix-blend-mode: normal" data-fill-palette-color="tertiary"></path></g><g transform="matrix(1,0,0,1,64,119.46273333206486)"><svg viewBox="0 0 192 121.0745333358703" height="121.0745333358703" width="192"><g><svg viewBox="0 0 192 121.0745333358703" height="121.0745333358703" width="192"><g><svg viewBox="0 0 192 121.0745333358703" height="121.0745333358703" width="192"><g transform="matrix(1,0,0,1,0,71.95163361695137)"><svg viewBox="0 0 192 49.12289971891893" height="49.12289971891893" width="192"><g id="textblocktransform"><svg viewBox="0 0 192 49.12289971891893" height="49.12289971891893" width="192" id="textblock"><g><svg viewBox="0 0 192 27.848648648648652" height="27.848648648648652" width="192"><g transform="matrix(1,0,0,1,0,0)"><svg width="192" viewBox="3.45 -31.9 223.25 32.391011235955055" height="27.848648648648652" data-palette-color="#c9efc7"><path d="M3.45-1.72L3.45-29.54Q3.45-30.46 4.02-30.86 4.6-31.26 5.06-31.26 5.52-31.26 5.8-31.21 6.09-31.15 6.38-30.86L6.38-30.86Q7.01-30.46 7.01-29.54L7.01-29.54 7.01-1.72Q7.01-0.86 6.44-0.43 5.86 0 5.17 0L5.17 0Q4.48 0 3.97-0.43 3.45-0.86 3.45-1.72L3.45-1.72ZM29.31-1.61L29.31-3.62Q26.43 0.46 21.49 0.46L21.49 0.46Q17.01 0.46 14.48-3.1L14.48-3.1Q12.3-6.32 12.3-10.92L12.3-10.92Q12.3-18.62 17.41-21.26L17.41-21.26Q19.14-22.24 20.89-22.24 22.64-22.24 23.79-22.04 24.94-21.84 25.97-21.26L25.97-21.26Q28.16-20.17 29.31-18.28L29.31-18.28 29.31-29.66Q29.31-30.52 29.88-30.89 30.46-31.26 31.15-31.26L31.15-31.26Q31.84-31.26 32.35-30.89 32.87-30.52 32.87-29.66L32.87-29.66 32.87-1.61Q32.87-0.8 32.3-0.4 31.72 0 31.26 0 30.8 0 30.49-0.09 30.17-0.17 29.88-0.46L29.88-0.46Q29.31-0.86 29.31-1.61L29.31-1.61ZM22.18-2.24L22.18-2.24Q29.19-2.24 29.19-11.26L29.19-11.26Q29.19-17.07 25.69-18.85L25.69-18.85Q24.37-19.54 22.53-19.54 20.69-19.54 19.48-18.82 18.27-18.1 17.47-16.9L17.47-16.9Q16.03-14.66 16.03-11.21L16.03-11.21Q16.03-6.09 18.45-3.68L18.45-3.68Q19.83-2.24 22.18-2.24ZM37.7-10.92L37.7-10.92Q37.7-15.69 40.4-18.85L40.4-18.85Q43.33-22.24 48.04-22.24L48.04-22.24Q52.06-22.24 54.19-20.57L54.19-20.57Q54.82-20.11 54.82-19.48 54.82-18.85 54.48-18.48 54.13-18.1 53.67-18.1 53.21-18.1 52.98-18.28L52.98-18.28Q50.8-19.54 48.39-19.48L48.39-19.48Q45.22-19.48 43.44-17.13L43.44-17.13Q41.43-14.71 41.43-10.92L41.43-10.92Q41.43-7.41 42.87-5L42.87-5Q44.59-2.24 48.39-2.24L48.39-2.24Q50.45-2.24 53.44-3.68L53.44-3.68Q54.25-4.14 54.82-3.45L54.82-3.45Q55.17-3.1 55.17-2.5 55.17-1.9 54.42-1.29 53.67-0.69 52.64-0.34L52.64-0.34Q50.11 0.52 47.75 0.49 45.4 0.46 43.5-0.4 41.6-1.26 40.34-2.93L40.34-2.93Q37.7-6.09 37.7-10.92ZM60.45-1.72L60.45-29.54Q60.45-30.46 61.03-30.86 61.6-31.26 62.06-31.26 62.52-31.26 62.81-31.21 63.1-31.15 63.38-30.86L63.38-30.86Q64.02-30.46 64.02-29.54L64.02-29.54 64.02-1.72Q64.02-0.86 63.44-0.43 62.87 0 62.18 0L62.18 0Q61.49 0 60.97-0.43 60.45-0.86 60.45-1.72L60.45-1.72ZM90.22-11.55L90.22-11.55Q90.22-10.34 88.84-10.23L88.84-10.23 73.09-10.23Q73.32-4.37 77.69-2.64L77.69-2.64Q78.9-2.24 80.45-2.24L80.45-2.24Q83.67-2.24 87-4.6L87-4.6Q88.04-5.17 88.73-4.48L88.73-4.48Q89.07-4.14 88.96-3.79L88.96-3.79Q88.96-2.99 88.55-2.64L88.55-2.64Q85.39 0.52 80.22 0.46L80.22 0.46Q75.51 0.46 72.63-2.59L72.63-2.59Q69.42-5.75 69.42-10.92L69.42-10.92Q69.42-15.69 72.06-18.79L72.06-18.79Q74.82-22.24 79.88-22.24L79.88-22.24Q84.93-22.24 87.58-19.2L87.58-19.2Q90.1-16.44 90.22-11.55ZM73.21-12.59L86.83-12.59Q86.66-15.69 84.82-17.7L84.82-17.7Q83.09-19.54 79.88-19.54L79.88-19.54Q77.12-19.54 75.16-17.47L75.16-17.47Q73.38-15.4 73.21-12.59L73.21-12.59ZM105.96-13.28L105.96-13.28Q107.17-13.28 108.38-13.22L108.38-13.22 108.38-15.06Q108.38-19.54 103.38-19.54L103.38-19.54Q101.14-19.54 100.1-19.14L100.1-19.14Q98.26-18.45 97.46-17.96 96.65-17.47 96.19-17.47 95.73-17.47 95.33-17.82 94.93-18.16 94.93-18.74L94.93-18.74Q94.93-19.2 95.45-19.66L95.45-19.66Q98.15-22.24 103.44-22.24L103.44-22.24Q109.53-22.24 111.25-18.16L111.25-18.16Q111.83-16.72 111.83-14.83L111.83-14.83 111.71-1.55Q111.71-0.8 111.19-0.4 110.68 0 110.04 0 109.41 0 108.9-0.34 108.38-0.69 108.38-1.49L108.38-1.49 108.38-3.56Q107-0.57 103.44 0.17L103.44 0.17Q102.34 0.46 100.96 0.46 99.59 0.46 98.23 0.06 96.88-0.34 95.85-1.21L95.85-1.21Q93.72-2.99 93.72-6.03L93.72-6.03Q93.72-13.28 105.96-13.28ZM108.38-8.74L108.38-10.69Q107.46-10.57 106.25-10.57 105.04-10.57 103.78-10.55 102.52-10.52 101.37-10.26 100.22-10 99.3-9.48L99.3-9.48Q97.34-8.45 97.23-6.09L97.23-6.09Q97.23-4.25 98.72-3.22L98.72-3.22Q99.87-2.3 102-2.24L102-2.24Q104.59-2.24 106.48-3.91L106.48-3.91Q108.21-5.52 108.38-8.74L108.38-8.74ZM127.57-19.2L123.84-19.2 123.84-1.72Q123.84-0.86 123.29-0.43 122.74 0 122.23 0 121.71 0 121.39-0.09 121.08-0.17 120.85-0.46L120.85-0.46Q120.27-0.86 120.33-1.72L120.33-1.72 120.33-19.2 117.28-19.2Q116.59-19.2 116.25-19.6 115.9-20 115.9-20.52L115.9-20.52Q115.9-20.92 116.25-21.38 116.59-21.84 117.28-21.84L117.28-21.84 120.33-21.84 120.33-24.25Q120.33-30.17 123.49-31.49L123.49-31.49Q124.53-31.9 125.56-31.9L125.56-31.9Q127.4-31.9 129.3-31.26L129.3-31.26Q130.16-30.92 130.16-30.11L130.16-30.11Q130.16-29.66 129.87-29.22 129.58-28.79 129.09-28.79 128.61-28.79 128.35-28.82 128.09-28.85 127.86-28.97L127.86-28.97Q127.23-29.08 126.45-29.08 125.67-29.08 125.16-28.76 124.64-28.45 124.3-27.76L124.3-27.76Q123.84-26.67 123.84-22.53L123.84-22.53 123.84-21.84 127.57-21.84Q128.26-21.84 128.63-21.44 129.01-21.03 129.01-20.52 129.01-20 128.63-19.6 128.26-19.2 127.57-19.2L127.57-19.2ZM134.38-1.32Q134.24-1.72 134.24-2.13 134.24-2.53 134.38-2.9 134.52-3.28 134.87-3.59 135.21-3.91 135.64-4.08 136.07-4.25 136.65-4.25 137.22-4.25 137.63-4.08 138.03-3.91 138.34-3.59 138.66-3.28 138.8-2.9 138.95-2.53 138.95-2.13 138.95-1.72 138.8-1.32 138.66-0.92 138.34-0.63 138.03-0.34 137.63-0.17 137.22 0 136.65 0 136.07 0 135.64-0.17 135.21-0.34 134.87-0.63 134.52-0.92 134.38-1.32ZM144.92-10.92L144.92-10.92Q144.92-15.69 147.62-18.85L147.62-18.85Q150.55-22.24 155.27-22.24L155.27-22.24Q159.29-22.24 161.42-20.57L161.42-20.57Q162.05-20.11 162.05-19.48 162.05-18.85 161.7-18.48 161.36-18.1 160.9-18.1 160.44-18.1 160.21-18.28L160.21-18.28Q158.03-19.54 155.61-19.48L155.61-19.48Q152.45-19.48 150.67-17.13L150.67-17.13Q148.66-14.71 148.66-10.92L148.66-10.92Q148.66-7.41 150.09-5L150.09-5Q151.82-2.24 155.61-2.24L155.61-2.24Q157.68-2.24 160.67-3.68L160.67-3.68Q161.47-4.14 162.05-3.45L162.05-3.45Q162.39-3.1 162.39-2.5 162.39-1.9 161.65-1.29 160.9-0.69 159.87-0.34L159.87-0.34Q157.34 0.52 154.98 0.49 152.62 0.46 150.73-0.4 148.83-1.26 147.57-2.93L147.57-2.93Q144.92-6.09 144.92-10.92ZM166.13-10.86L166.13-10.86Q166.13-12.93 166.79-15 167.45-17.07 168.83-18.74L168.83-18.74Q171.7-22.24 176.99-22.24 182.28-22.24 185.15-18.74L185.15-18.74Q187.85-15.4 187.85-10.92L187.85-10.92Q187.85-6.38 185.15-3.1L185.15-3.1Q182.28 0.46 176.99 0.46 171.7 0.46 168.83-3.1L168.83-3.1Q166.13-6.32 166.13-10.86ZM169.86-10.86L169.86-10.86Q169.86-9.48 170.24-7.93 170.61-6.38 171.59-5.06L171.59-5.06Q173.54-2.24 176.99-2.24L176.99-2.24Q180.61-2.24 182.39-5.06L182.39-5.06Q184.06-7.7 184.06-10.92L184.06-10.92Q184.06-14.25 182.39-16.67L182.39-16.67Q180.55-19.54 176.99-19.54L176.99-19.54Q173.54-19.54 171.59-16.67L171.59-16.67Q169.86-14.31 169.86-10.86ZM211.01-17.7L211.01-17.7Q213.77-22.24 218.94-22.24L218.94-22.24Q224.29-22.24 226.07-17.76L226.07-17.76Q226.7-16.09 226.7-13.91L226.7-13.91 226.7-1.61Q226.7-0.8 226.15-0.4 225.61 0 224.98 0L224.98 0Q224.29 0 223.74-0.43 223.19-0.86 223.19-1.61L223.19-1.61 223.19-14.14Q223.19-16.78 221.7-18.28L221.7-18.28Q220.32-19.54 218.14-19.54L218.14-19.54Q213.77-19.54 212.22-15.98L212.22-15.98Q211.58-14.66 211.58-12.76L211.58-12.76 211.58-1.61Q211.58-0.8 211.04-0.4 210.49 0 209.86 0L209.86 0Q209.17 0 208.62-0.43 208.08-0.86 208.08-1.61L208.08-1.61 208.08-14.14Q208.08-16.78 206.64-18.28L206.64-18.28Q205.26-19.54 203.48-19.54 201.7-19.54 200.55-19.14 199.4-18.74 198.48-17.82L198.48-17.82Q196.64-15.98 196.53-12.64L196.53-12.64 196.53-1.61Q196.53-0.8 195.95-0.4 195.38 0 194.75 0 194.11 0 193.54-0.43 192.96-0.86 192.96-1.61L192.96-1.61 192.96-20.17Q192.96-20.92 193.54-21.38 194.11-21.84 194.63-21.84 195.15-21.84 195.43-21.7 195.72-21.55 195.95-21.38L195.95-21.38Q196.53-20.92 196.53-20.23L196.53-20.23 196.53-18.16Q197.33-20.11 199.46-21.21L199.46-21.21Q201.35-22.24 203.88-22.24L203.88-22.24Q207.79-22.24 209.86-19.77L209.86-19.77Q210.55-18.85 211.01-17.7Z" opacity="1" transform="matrix(1,0,0,1,0,0)" fill="#ffffff" class="wordmark-text-0" data-fill-palette-color="primary" id="text-0"></path></svg></g></svg></g><g transform="matrix(1,0,0,1,0,31.91243485405406)"><svg viewBox="0 0 192 17.210464864864868" height="17.210464864864868" width="192"><g transform="matrix(1,0,0,1,0,0)"><svg width="192" viewBox="5.7 -37.35 527.68 47.3" height="17.210464864864868" data-palette-color="#c9efc7"><path d="M5.7 0L5.7-35 9.4-35 9.4-3.2 29-3.2 29 0 5.7 0ZM46.29-2.9Q48.74-2.9 50.82-3.78 52.89-4.65 54.34-6.35L54.34-6.35 56.34-4.05Q54.59-1.95 51.99-0.85 49.39 0.25 46.24 0.25L46.24 0.25Q42.19 0.25 39.04-1.48 35.89-3.2 34.14-6.25 32.39-9.3 32.39-13.15L32.39-13.15Q32.39-17 34.07-20.05 35.74-23.1 38.69-24.8 41.64-26.5 45.39-26.5L45.39-26.5Q48.89-26.5 51.72-24.9 54.54-23.3 56.22-20.45 57.89-17.6 57.99-13.95L57.99-13.95 36.39-9.75Q37.39-6.55 40.02-4.73 42.64-2.9 46.29-2.9L46.29-2.9ZM45.39-23.45Q42.64-23.45 40.47-22.18 38.29-20.9 37.07-18.63 35.84-16.35 35.84-13.4L35.84-13.4Q35.84-12.65 35.89-12.3L35.89-12.3 54.44-15.9Q53.84-19.2 51.39-21.33 48.94-23.45 45.39-23.45L45.39-23.45ZM86.73-26.3L90.28-26.3 90.28 0 86.88 0 86.88-5.2Q85.28-2.55 82.66-1.15 80.03 0.25 76.73 0.25L76.73 0.25Q73.03 0.25 70.03-1.45 67.03-3.15 65.33-6.2 63.63-9.25 63.63-13.15L63.63-13.15Q63.63-17.05 65.33-20.1 67.03-23.15 70.03-24.83 73.03-26.5 76.73-26.5L76.73-26.5Q79.93-26.5 82.51-25.18 85.08-23.85 86.73-21.3L86.73-21.3 86.73-26.3ZM77.03-2.9Q79.78-2.9 82.01-4.17 84.23-5.45 85.51-7.8 86.78-10.15 86.78-13.15L86.78-13.15Q86.78-16.15 85.51-18.5 84.23-20.85 82.01-22.13 79.78-23.4 77.03-23.4L77.03-23.4Q74.23-23.4 72.01-22.13 69.78-20.85 68.51-18.5 67.23-16.15 67.23-13.15L67.23-13.15Q67.23-10.15 68.51-7.8 69.78-5.45 72.01-4.17 74.23-2.9 77.03-2.9L77.03-2.9ZM109.32-34.35Q107.02-34.35 105.85-33.1 104.67-31.85 104.67-29.4L104.67-29.4 104.67-26.3 112.77-26.3 112.77-23.3 104.77-23.3 104.77 0 101.22 0 101.22-29.55Q101.22-33.15 103.3-35.25 105.37-37.35 109.17-37.35L109.17-37.35Q110.67-37.35 112.07-36.93 113.47-36.5 114.42-35.7L114.42-35.7 113.22-33.05Q111.67-34.35 109.32-34.35L109.32-34.35ZM133.51 0L133.51-35 147.76-35Q153.31-35 157.56-32.77 161.81-30.55 164.16-26.58 166.51-22.6 166.51-17.5L166.51-17.5Q166.51-12.4 164.16-8.43 161.81-4.45 157.56-2.23 153.31 0 147.76 0L147.76 0 133.51 0ZM137.21-3.2L147.56-3.2Q152.16-3.2 155.61-5.03 159.06-6.85 160.96-10.08 162.86-13.3 162.86-17.5L162.86-17.5Q162.86-21.7 160.96-24.93 159.06-28.15 155.61-29.98 152.16-31.8 147.56-31.8L147.56-31.8 137.21-31.8 137.21-3.2ZM175.1 0L175.1-26.3 178.65-26.3 178.65 0 175.1 0ZM176.9-32.05Q175.8-32.05 175.05-32.8 174.3-33.55 174.3-34.6L174.3-34.6Q174.3-35.6 175.05-36.35 175.8-37.1 176.9-37.1L176.9-37.1Q178-37.1 178.75-36.38 179.5-35.65 179.5-34.65L179.5-34.65Q179.5-33.55 178.75-32.8 178-32.05 176.9-32.05L176.9-32.05ZM210.54-26.3L213.94-26.3 213.94-3.2Q213.94 3.5 210.67 6.73 207.39 9.95 200.79 9.95L200.79 9.95Q197.14 9.95 193.87 8.88 190.59 7.8 188.54 5.9L188.54 5.9 190.34 3.2Q192.24 4.9 194.97 5.85 197.69 6.8 200.69 6.8L200.69 6.8Q205.69 6.8 208.04 4.48 210.39 2.15 210.39-2.75L210.39-2.75 210.39-6.1Q208.74-3.6 206.07-2.3 203.39-1 200.14-1L200.14-1Q196.44-1 193.42-2.63 190.39-4.25 188.67-7.18 186.94-10.1 186.94-13.8L186.94-13.8Q186.94-17.5 188.67-20.4 190.39-23.3 193.39-24.9 196.39-26.5 200.14-26.5L200.14-26.5Q203.49-26.5 206.19-25.15 208.89-23.8 210.54-21.25L210.54-21.25 210.54-26.3ZM200.49-4.15Q203.34-4.15 205.64-5.38 207.94-6.6 209.22-8.8 210.49-11 210.49-13.8L210.49-13.8Q210.49-16.6 209.22-18.78 207.94-20.95 205.67-22.18 203.39-23.4 200.49-23.4L200.49-23.4Q197.64-23.4 195.37-22.2 193.09-21 191.82-18.8 190.54-16.6 190.54-13.8L190.54-13.8Q190.54-11 191.82-8.8 193.09-6.6 195.37-5.38 197.64-4.15 200.49-4.15L200.49-4.15ZM224.93 0L224.93-26.3 228.48-26.3 228.48 0 224.93 0ZM226.73-32.05Q225.63-32.05 224.88-32.8 224.13-33.55 224.13-34.6L224.13-34.6Q224.13-35.6 224.88-36.35 225.63-37.1 226.73-37.1L226.73-37.1Q227.83-37.1 228.58-36.38 229.33-35.65 229.33-34.65L229.33-34.65Q229.33-33.55 228.58-32.8 227.83-32.05 226.73-32.05L226.73-32.05ZM251.12-4.15L252.37-1.6Q251.37-0.7 249.92-0.23 248.47 0.25 246.87 0.25L246.87 0.25Q243.17 0.25 241.17-1.75 239.17-3.75 239.17-7.4L239.17-7.4 239.17-32.05 242.72-32.05 242.72-26.3 250.67-26.3 250.67-23.3 242.72-23.3 242.72-7.6Q242.72-5.25 243.87-4.03 245.02-2.8 247.22-2.8L247.22-2.8Q249.62-2.8 251.12-4.15L251.12-4.15ZM279.36-26.3L282.91-26.3 282.91 0 279.51 0 279.51-5.2Q277.91-2.55 275.29-1.15 272.66 0.25 269.36 0.25L269.36 0.25Q265.66 0.25 262.66-1.45 259.66-3.15 257.96-6.2 256.26-9.25 256.26-13.15L256.26-13.15Q256.26-17.05 257.96-20.1 259.66-23.15 262.66-24.83 265.66-26.5 269.36-26.5L269.36-26.5Q272.56-26.5 275.14-25.18 277.71-23.85 279.36-21.3L279.36-21.3 279.36-26.3ZM269.66-2.9Q272.41-2.9 274.64-4.17 276.86-5.45 278.14-7.8 279.41-10.15 279.41-13.15L279.41-13.15Q279.41-16.15 278.14-18.5 276.86-20.85 274.64-22.13 272.41-23.4 269.66-23.4L269.66-23.4Q266.86-23.4 264.64-22.13 262.41-20.85 261.14-18.5 259.86-16.15 259.86-13.15L259.86-13.15Q259.86-10.15 261.14-7.8 262.41-5.45 264.64-4.17 266.86-2.9 269.66-2.9L269.66-2.9ZM301.26 0.25Q297.71 0.25 295.78-1.75 293.86-3.75 293.86-7.3L293.86-7.3 293.86-37.1 297.41-37.1 297.41-7.6Q297.41-5.25 298.51-4.03 299.61-2.8 301.81-2.8L301.81-2.8Q303.21-2.8 304.21-3.25L304.21-3.25 304.46-0.3Q302.91 0.25 301.26 0.25L301.26 0.25ZM340.44 0.3Q335.24 0.3 331.06-2 326.89-4.3 324.51-8.38 322.14-12.45 322.14-17.5L322.14-17.5Q322.14-22.55 324.51-26.63 326.89-30.7 331.09-33 335.29-35.3 340.49-35.3L340.49-35.3Q344.39-35.3 347.69-34 350.99-32.7 353.29-30.2L353.29-30.2 350.94-27.85Q346.84-32 340.59-32L340.59-32Q336.44-32 333.04-30.1 329.64-28.2 327.71-24.9 325.79-21.6 325.79-17.5L325.79-17.5Q325.79-13.4 327.71-10.1 329.64-6.8 333.04-4.9 336.44-3 340.59-3L340.59-3Q346.89-3 350.94-7.2L350.94-7.2 353.29-4.85Q350.99-2.35 347.66-1.03 344.34 0.3 340.44 0.3L340.44 0.3ZM364.88-21.15Q366.13-23.8 368.61-25.15 371.08-26.5 374.73-26.5L374.73-26.5 374.73-23.05 373.88-23.1Q369.73-23.1 367.38-20.55 365.03-18 365.03-13.4L365.03-13.4 365.03 0 361.48 0 361.48-26.3 364.88-26.3 364.88-21.15ZM393.17-2.9Q395.62-2.9 397.7-3.78 399.77-4.65 401.22-6.35L401.22-6.35 403.22-4.05Q401.47-1.95 398.87-0.85 396.27 0.25 393.12 0.25L393.12 0.25Q389.07 0.25 385.92-1.48 382.77-3.2 381.02-6.25 379.27-9.3 379.27-13.15L379.27-13.15Q379.27-17 380.95-20.05 382.62-23.1 385.57-24.8 388.52-26.5 392.27-26.5L392.27-26.5Q395.77-26.5 398.6-24.9 401.42-23.3 403.1-20.45 404.77-17.6 404.87-13.95L404.87-13.95 383.27-9.75Q384.27-6.55 386.9-4.73 389.52-2.9 393.17-2.9L393.17-2.9ZM392.27-23.45Q389.52-23.45 387.35-22.18 385.17-20.9 383.95-18.63 382.72-16.35 382.72-13.4L382.72-13.4Q382.72-12.65 382.77-12.3L382.77-12.3 401.32-15.9Q400.72-19.2 398.27-21.33 395.82-23.45 392.27-23.45L392.27-23.45ZM433.61-26.3L437.16-26.3 437.16 0 433.76 0 433.76-5.2Q432.16-2.55 429.54-1.15 426.91 0.25 423.61 0.25L423.61 0.25Q419.91 0.25 416.91-1.45 413.91-3.15 412.21-6.2 410.51-9.25 410.51-13.15L410.51-13.15Q410.51-17.05 412.21-20.1 413.91-23.15 416.91-24.83 419.91-26.5 423.61-26.5L423.61-26.5Q426.81-26.5 429.39-25.18 431.96-23.85 433.61-21.3L433.61-21.3 433.61-26.3ZM423.91-2.9Q426.66-2.9 428.89-4.17 431.11-5.45 432.39-7.8 433.66-10.15 433.66-13.15L433.66-13.15Q433.66-16.15 432.39-18.5 431.11-20.85 428.89-22.13 426.66-23.4 423.91-23.4L423.91-23.4Q421.11-23.4 418.89-22.13 416.66-20.85 415.39-18.5 414.11-16.15 414.11-13.15L414.11-13.15Q414.11-10.15 415.39-7.8 416.66-5.45 418.89-4.17 421.11-2.9 423.91-2.9L423.91-2.9ZM459.8-4.15L461.05-1.6Q460.05-0.7 458.6-0.23 457.15 0.25 455.55 0.25L455.55 0.25Q451.85 0.25 449.85-1.75 447.85-3.75 447.85-7.4L447.85-7.4 447.85-32.05 451.4-32.05 451.4-26.3 459.35-26.3 459.35-23.3 451.4-23.3 451.4-7.6Q451.4-5.25 452.55-4.03 453.7-2.8 455.9-2.8L455.9-2.8Q458.3-2.8 459.8-4.15L459.8-4.15ZM468.55 0L468.55-26.3 472.1-26.3 472.1 0 468.55 0ZM470.35-32.05Q469.25-32.05 468.5-32.8 467.75-33.55 467.75-34.6L467.75-34.6Q467.75-35.6 468.5-36.35 469.25-37.1 470.35-37.1L470.35-37.1Q471.45-37.1 472.2-36.38 472.95-35.65 472.95-34.65L472.95-34.65Q472.95-33.55 472.2-32.8 471.45-32.05 470.35-32.05L470.35-32.05ZM501.64-26.3L505.14-26.3 493.44 0 489.79 0 478.14-26.3 481.84-26.3 491.69-3.9 501.64-26.3ZM521.68-2.9Q524.13-2.9 526.2-3.78 528.28-4.65 529.73-6.35L529.73-6.35 531.73-4.05Q529.98-1.95 527.38-0.85 524.78 0.25 521.63 0.25L521.63 0.25Q517.58 0.25 514.43-1.48 511.28-3.2 509.53-6.25 507.78-9.3 507.78-13.15L507.78-13.15Q507.78-17 509.45-20.05 511.13-23.1 514.08-24.8 517.03-26.5 520.78-26.5L520.78-26.5Q524.28-26.5 527.1-24.9 529.93-23.3 531.6-20.45 533.28-17.6 533.38-13.95L533.38-13.95 511.78-9.75Q512.78-6.55 515.4-4.73 518.03-2.9 521.68-2.9L521.68-2.9ZM520.78-23.45Q518.03-23.45 515.85-22.18 513.68-20.9 512.45-18.63 511.23-16.35 511.23-13.4L511.23-13.4Q511.23-12.65 511.28-12.3L511.28-12.3 529.83-15.9Q529.23-19.2 526.78-21.33 524.33-23.45 520.78-23.45L520.78-23.45Z" opacity="1" transform="matrix(1,0,0,1,0,0)" fill="#ffffff" class="slogan-text-1" data-fill-palette-color="secondary" id="text-1"></path></svg></g></svg></g></svg></g></svg></g><g transform="matrix(1,0,0,1,77.95564766509167,0)"><svg viewBox="0 0 36.08870466981666 67.88784741154596" height="67.88784741154596" width="36.08870466981666"><g><svg xmlns="http://www.w3.org/2000/svg" xmlns:xlink="http://www.w3.org/1999/xlink" version="1.1" x="0" y="0" viewBox="21.02340260577452 1.9519999999999982 49.996806956340336 94.05091240515826" enable-background="new 0 0 100 100" xml:space="preserve" height="67.88784741154596" width="36.08870466981666" class="icon-icon-0" data-fill-palette-color="accent" id="icon-0"><path d="M45.062 80.154c0 0-35.74-17.032-20.062-44.174 0 0 13.902-24.925 25.197-34.028 0.185 1.529-3.972 12.273 4.141 19.169 3.371 2.865 36.916 29.199-1.858 59.033 0 0-4.721 13.146-5.9 14.831-1.5 2.145-9.143 0.486-8.429-1.18C38.656 92.626 46.413 80.855 45.062 80.154z" fill="#ffffff" data-fill-palette-color="accent"></path></svg></g></svg></g><g></g></svg></g></svg></g></svg></g></svg></g><defs></defs></svg><rect width="320" height="360" fill="none" stroke="none" visibility="hidden"></rect></g></svg></g></svg>